<svg width="20" height="20" viewBox="0 0 20 20" fill="none" xmlns="http://www.w3.org/2000/svg">
<path d="M9.17502 16.6834C13.3218 16.6834 16.6834 13.3218 16.6834 9.17508C16.6834 5.02834 13.3218 1.66675 9.17502 1.66675C5.02828 1.66675 1.66669 5.02834 1.66669 9.17508C1.66669 13.3218 5.02828 16.6834 9.17502 16.6834Z" fill="#222B3A"/>
<path d="M18.3251 15.7917C18.0501 15.2833 17.4668 15 16.6834 15C16.0918 15 15.5834 15.2417 15.2834 15.6583C14.9834 16.075 14.9168 16.6333 15.1001 17.1917C15.4584 18.275 16.0834 18.5167 16.4251 18.5583C16.4751 18.5667 16.5251 18.5667 16.5834 18.5667C16.9501 18.5667 17.5168 18.4083 18.0668 17.5833C18.5084 16.9417 18.5918 16.3 18.3251 15.7917Z" fill="#222B3A"/>
</svg>
